HIERARCHY
ROOT Hips
{
     OFFSET 35.44390 96.68280 -29.28320
     CHANNELS 6 Xposition Yposition Zposition Zrotation Xrotation Yrotation
     JOINT Spine
     {
          OFFSET 0.00000 11.89050 0.00000
          CHANNELS 3 Zrotation Xrotation Yrotation
          JOINT Spine1
          {
               OFFSET 0.00000 25.65740 0.12766
               CHANNELS 3 Zrotation Xrotation Yrotation
               JOINT HEad
               {
                    OFFSET 0.00000 8.73416 0.01134
                    CHANNELS 3 Zrotation Xrotation Yrotation
                    End Site
                    {
                         OFFSET -0.29000 12.77420 2.51395
                    }
               }
               JOINT LeftShoulder1
               {
                    OFFSET 8.99000 -0.36225 -0.22000
                    CHANNELS 3 Zrotation Xrotation Yrotation
                    JOINT LeftArm
                    {
                         OFFSET 10.28270 -0.00338 0.32212
                         CHANNELS 3 Zrotation Xrotation Yrotation
                         JOINT LeftForeArm
                         {
                              OFFSET 32.76690 0.09914 -1.42434
                              CHANNELS 3 Zrotation Xrotation Yrotation
                              JOINT LeftHand
                              {
                                   OFFSET 27.56430 0.08536 1.02216
                                   CHANNELS 3 Zrotation Xrotation Yrotation
                                   End Site
                                   {
                                        OFFSET 16.74430 -0.60000 1.50291
                                   }
                              }
                         }
                    }
               }
               JOINT RightShoulder
               {
                    OFFSET -8.99000 -0.36225 -0.22000
                    CHANNELS 3 Zrotation Xrotation Yrotation
                    JOINT RightArm
                    {
                         OFFSET -10.28270 -0.00338 0.32212
                         CHANNELS 3 Zrotation Xrotation Yrotation
                         JOINT RightForeArm
                         {
                              OFFSET -32.89710 0.09914 -1.42434
                              CHANNELS 3 Zrotation Xrotation Yrotation
                              JOINT RightHand
                              {
                                   OFFSET -27.49210 0.08536 1.02216
                                   CHANNELS 3 Zrotation Xrotation Yrotation
                                   End Site
                                   {
                                        OFFSET -16.63120 -0.60000 1.50291
                                   }
                              }
                         }
                    }
               }
          }
     }
     JOINT LeftUpLeg
     {
          OFFSET 8.94580 -8.66707 0.10165
          CHANNELS 3 Zrotation Xrotation Yrotation
          JOINT LeftLeg
          {
               OFFSET 0.00000 -44.42270 1.37270
               CHANNELS 3 Zrotation Xrotation Yrotation
               JOINT LeftFoot
               {
                    OFFSET -0.25355 -42.09240 -1.46059
                    CHANNELS 3 Zrotation Xrotation Yrotation
                    JOINT LeftToes
                    {
                         OFFSET -0.04000 -4.41509 8.49910
                         CHANNELS 3 Zrotation Xrotation Yrotation
                         End Site
                         {
                              OFFSET 0.08000 -0.04745 9.77979
                         }
                    }
               }
          }
     }
     JOINT RightUpLeg
     {
          OFFSET -8.94580 -8.66707 0.10165
          CHANNELS 3 Zrotation Xrotation Yrotation
          JOINT RightLeg
          {
               OFFSET 0.00000 -44.42270 1.37270
               CHANNELS 3 Zrotation Xrotation Yrotation
               JOINT RightFoot
               {
                    OFFSET 0.25355 -42.09240 -1.46059
                    CHANNELS 3 Zrotation Xrotation Yrotation
                    JOINT RightToes
                    {
                         OFFSET 0.04000 -4.41509 8.49910
                         CHANNELS 3 Zrotation Xrotation Yrotation
                         End Site
                         {
                              OFFSET -0.08000 -0.13745 9.77979
                         }
                    }
               }
          }
     }
}
MOTION
Frames: 7
Frame Time: 0.01667
33.14530 94.68130 -38.19460 -9.86110 -7.85268 -34.63620 4.50235 7.73995 1.93527 2.37204 16.19660 4.97663 -14.11340 15.39900 9.47157 0.00000 0.00000 0.00000 -110.83600 -30.24070 -76.08710 10.84000 33.90060 -101.46700 30.75200 9.27682 1.97065 15.77220 1.96240 8.13840 80.31490 6.23635 76.21940 8.76994 25.49600 84.08490 1.60577 10.31670 16.19590 21.64660 -14.41660 8.16127 -7.61490 27.92010 16.16440 -4.24729 6.15437 0.45827 -13.79430 -15.36530 -7.33544 -15.04890 0.22659 3.86295 4.58129 46.24410 -9.32048 12.30190 -22.52030 1.38054 8.23339 25.84050 -20.38880 
32.72480 94.35790 -39.20890 -9.81465 -8.33533 -34.97390 4.53257 7.93753 2.08254 2.11075 16.63030 5.36056 -14.83550 15.65010 9.54528 0.00000 0.00000 0.00000 -114.35600 -28.51360 -76.02560 9.57483 35.30380 -102.72200 31.14990 9.06277 1.20573 16.35130 2.08681 8.51977 82.32420 7.88581 74.70450 10.19820 25.43080 83.65520 1.48234 10.30310 16.62070 21.94330 -14.24130 7.89281 -7.87341 27.69030 16.50980 -4.13552 6.47942 0.45451 -13.33920 -14.94420 -7.03493 -15.62010 0.88335 3.82593 4.17397 46.21620 -9.57710 12.66000 -21.73010 1.34156 8.55283 25.98350 -22.15340 
32.27950 93.93440 -40.30990 -9.77907 -8.88356 -35.32710 4.51966 8.18636 2.20359 1.84315 17.15480 5.67750 -15.59110 15.75160 9.76013 0.00000 0.00000 0.00000 -118.00700 -27.03760 -75.62440 8.13963 37.13890 -104.19700 31.66270 8.87808 0.58465 16.94550 2.21051 8.86874 84.35600 9.33071 73.13970 11.41410 25.47420 83.36390 1.35913 10.28660 16.93950 22.29880 -14.13390 7.52668 -8.23383 27.60790 17.00140 -4.00212 6.91673 0.45060 -13.25540 -14.95140 -6.84201 -16.13880 1.51370 3.69208 3.69715 46.12670 -9.31322 13.03730 -20.93500 1.29939 7.96662 24.14750 -24.13110 
31.81270 93.39520 -41.49070 -9.77139 -9.49241 -35.70400 4.47133 8.47817 2.30085 1.59247 17.75450 5.93461 -16.31560 15.72820 10.07670 0.00000 0.00000 0.00000 -121.48300 -25.85620 -74.87660 6.69534 39.18430 -105.76900 32.20370 8.70005 0.01342 17.51490 2.32427 9.16086 86.25650 10.54080 71.59120 12.29730 25.60520 83.22420 1.22394 10.26570 17.17460 22.74240 -14.11330 7.10879 -8.69169 27.73390 17.59340 -3.91408 7.46674 0.45475 -13.59120 -15.51380 -6.66535 -16.58310 2.08471 3.42269 3.18179 46.08830 -8.45177 13.23070 -20.51640 1.27448 6.23781 20.14540 -25.98110 
31.33030 92.74200 -42.73650 -9.79811 -10.13390 -36.08940 4.41825 8.78861 2.36703 1.38725 18.38740 6.12876 -16.95430 15.57620 10.44150 0.00000 0.00000 0.00000 -124.48800 -24.98520 -73.82040 5.43420 41.14010 -107.33700 32.61450 8.49407 -0.65630 18.03120 2.41796 9.36639 87.89460 11.51010 70.12570 12.82240 25.78660 83.21520 1.11432 10.24800 17.34540 23.27730 -14.23030 6.69613 -9.19930 28.14710 18.17760 -3.93829 7.95765 0.47172 -14.03240 -16.35680 -6.28192 -16.93770 2.52347 2.98810 2.72320 46.25820 -7.17939 13.00850 -20.76950 1.27718 3.57388 14.54430 -27.15320 
30.84330 91.99040 -44.02140 -9.86690 -10.77250 -36.44570 4.40015 9.09386 2.38005 1.24893 19.01630 6.23113 -17.51080 15.29150 10.84090 0.00000 0.00000 0.00000 -125.01000 -23.52100 -72.06270 4.50822 40.84230 -108.50800 32.62710 8.31530 -1.28510 18.49250 2.48835 9.47816 89.16990 12.26360 68.81560 13.03420 25.95610 83.27890 1.14273 10.25550 17.47650 23.88520 -14.52980 6.31332 -9.69121 28.88360 18.67520 -4.08626 8.25915 0.50069 -14.30750 -17.13340 -5.67076 -17.19960 2.77095 2.41209 2.46450 46.75310 -5.94101 12.22790 -21.64920 1.27768 0.49572 8.16408 -27.28690 
30.36980 91.16460 -45.31190 -10.00330 -11.38840 -36.74460 4.45323 9.38934 2.31697 1.18758 19.64210 6.21097 -18.01830 14.87010 11.31020 0.00000 0.00000 0.00000 -124.89900 -22.31410 -70.32180 3.90857 40.20620 -109.62600 32.31270 8.11464 -2.05839 18.90600 2.53807 9.51163 90.03010 12.84780 67.74100 12.99430 26.04580 83.34260 1.45837 10.31760 17.58910 24.55000 -14.99040 5.94895 -10.12780 29.87920 19.07790 -4.28586 8.44526 0.53413 -14.50160 -17.77380 -5.11510 -17.36900 2.82633 1.77088 2.51958 47.60700 -5.20121 10.91820 -22.90010 1.22951 -2.50110 1.61875 -26.44840 
